# 3ds Max Wavefront OBJ Exporter v0.97b - (c)2007 guruware
# File Created: 16.04.2023 23:47:49

mtllib test.mtl

#
# object Box001
#

v  -67.6245 -67.6105 0.0000
v  -67.6245 66.6859 0.0000
v  66.6719 66.6859 0.0000
v  66.6719 -67.6105 0.0000
v  -67.6245 -67.6105 13.8448
v  66.6719 -67.6105 13.8448
v  66.6719 66.6859 13.8448
v  -67.6245 66.6859 13.8448
# 8 vertices

vn 0.0000 0.0000 -1.0000
vn 0.0000 0.0000 1.0000
vn 0.0000 -1.0000 0.0000
vn 1.0000 0.0000 0.0000
vn 0.0000 1.0000 0.0000
vn -1.0000 0.0000 0.0000
# 6 vertex normals

vt 1.0000 0.0000 0.0000
vt 1.0000 1.0000 0.0000
vt 0.0000 1.0000 0.0000
vt 0.0000 0.0000 0.0000
# 4 texture coords

g Box001
usemtl wire_214229166
f 1/1/1 2/2/1 3/3/1 4/4/1 
f 5/4/2 6/1/2 7/2/2 8/3/2 
f 1/4/3 4/1/3 6/2/3 5/3/3 
f 4/4/4 3/1/4 7/2/4 6/3/4 
f 3/4/5 2/1/5 8/2/5 7/3/5 
f 2/4/6 1/1/6 5/2/6 8/3/6 
# 6 polygons

#
# object Box002
#

v  -67.6245 -67.6105 0.0000
v  -67.6245 66.6859 0.0000
v  66.6719 66.6859 0.0000
v  66.6719 -67.6105 0.0000
v  -67.6245 -67.6105 13.8448
v  66.6719 -67.6105 13.8448
v  66.6719 66.6859 13.8448
v  -67.6245 66.6859 13.8448
# 8 vertices

vn 0.0000 0.0000 -1.0000
vn 0.0000 0.0000 1.0000
vn 0.0000 -1.0000 0.0000
vn 1.0000 0.0000 0.0000
vn 0.0000 1.0000 0.0000
vn -1.0000 0.0000 0.0000
# 6 vertex normals

vt 1.0000 0.0000 0.0000
vt 1.0000 1.0000 0.0000
vt 0.0000 1.0000 0.0000
vt 0.0000 0.0000 0.0000
# 4 texture coords

g Box002
usemtl FloorMaterial
f 9/5/7 10/6/7 11/7/7 12/8/7 
usemtl CeilingMaterial
f 13/8/8 14/5/8 15/6/8 16/7/8 
usemtl WallMaterial
f 9/8/9 12/5/9 14/6/9 13/7/9 
f 12/8/10 11/5/10 15/6/10 14/7/10 
f 11/8/11 10/5/11 16/6/11 15/7/11 
f 10/8/12 9/5/12 13/6/12 16/7/12 
# 6 polygons

#
# object Box003
#

v  -67.6245 -67.6105 0.0000
v  -67.6245 66.6859 0.0000
v  66.6719 66.6859 0.0000
v  66.6719 -67.6105 0.0000
v  -67.6245 -67.6105 13.8448
v  66.6719 -67.6105 13.8448
v  66.6719 66.6859 13.8448
v  -67.6245 66.6859 13.8448
# 8 vertices

vn 0.0000 0.0000 -1.0000
vn 0.0000 0.0000 1.0000
vn 0.0000 -1.0000 0.0000
vn 1.0000 0.0000 0.0000
vn 0.0000 1.0000 0.0000
vn -1.0000 0.0000 0.0000
# 6 vertex normals

vt 1.0000 0.0000 0.0000
vt 1.0000 1.0000 0.0000
vt 0.0000 1.0000 0.0000
vt 0.0000 0.0000 0.0000
# 4 texture coords

g Box003
usemtl wire_214229166
f 17/9/13 18/10/13 19/11/13 20/12/13 
f 21/12/14 22/9/14 23/10/14 24/11/14 
f 17/12/15 20/9/15 22/10/15 21/11/15 
f 20/12/16 19/9/16 23/10/16 22/11/16 
f 19/12/17 18/9/17 24/10/17 23/11/17 
f 18/12/18 17/9/18 21/10/18 24/11/18 
# 6 polygons

cstype bmatrix
	deg 3 3
	step 3 3
	bmat u  1       -3      3       -1      \
		0       3       -6      3       \
		0       0       3       -3      \
		0       0       0       1
	bmat v  1       -3      3       -1      \
		0       3       -6      3       \
		0       0       3       -3      \
		0       0       0       1

cstype bmatrix
	deg 3
	step 2
	bmat u  1     0     -3      2      0       0       3      -2 \
		0     1     -2      1      0       0      -1       1

cstype bmatrix
	deg 3 3
	step 3 1
	bmat u  1      -3       3      -1 \
		0       3      -6       3 \
		0       0       3      -3 \
		0       0       0       1
	bmat v  0.16666 -0.50000  0.50000 -0.16666 \
		0.66666  0.00000 -1.00000  0.50000 \
		0.16666  0.50000  0.50000 -0.50000 \
		0.00000  0.00000  0.00000  0.16666
